<?xml version="1.0" standalone="no"?>
<!DOCTYPE svg PUBLIC "-//W3C//DTD SVG 20010904//EN"
 "http://www.w3.org/TR/2001/REC-SVG-20010904/DTD/svg10.dtd">
<svg version="1.0" xmlns="http://www.w3.org/2000/svg"
 width="260.000000pt" height="260.000000pt" viewBox="0 0 260.000000 260.000000"
 preserveAspectRatio="xMidYMid meet">
<metadata>
Created by potrace 1.11, written by Peter Selinger 2001-2013
</metadata>
<g transform="translate(0.000000,260.000000) scale(0.100000,-0.100000)"
fill="#000000" stroke="none">
<path d="M1163 2550 c-157 -13 -372 -85 -517 -173 -255 -154 -453 -406 -541
-687 -39 -124 -45 -155 -55 -269 -32 -366 90 -715 343 -977 516 -536 1370
-511 1853 54 321 376 388 912 169 1358 -192 389 -582 659 -1004 694 -64 5
-125 9 -136 8 -11 0 -61 -4 -112 -8z m538 -581 c65 -46 96 -203 67 -342 l-15
-67 41 -11 c71 -19 193 -89 235 -134 97 -105 52 -226 -116 -313 -43 -22 -95
-45 -115 -52 -38 -11 -38 -12 -30 -53 4 -23 7 -89 7 -147 0 -90 -3 -112 -23
-152 -13 -27 -38 -58 -55 -70 -72 -52 -209 -14 -338 93 l-59 50 -58 -47 c-81
-67 -187 -115 -254 -117 -72 -1 -114 24 -148 88 -21 42 -25 63 -25 140 0 49 4
115 8 145 l9 55 -54 19 c-29 10 -77 32 -107 49 -220 124 -213 285 17 401 37
19 86 39 110 47 29 8 41 17 38 26 -3 7 -11 43 -17 80 -24 136 9 273 75 315 24
15 45 18 97 16 76 -4 155 -40 251 -115 l57 -45 53 45 c135 114 270 151 349 96z"/>
<path d="M919 1894 c-22 -23 -24 -36 -27 -127 -3 -107 7 -183 25 -180 6 1 53
8 104 14 58 7 97 17 102 25 4 8 33 44 64 80 54 64 55 65 37 86 -29 32 -130 98
-175 114 -63 22 -102 18 -130 -12z"/>
<path d="M1537 1905 c-40 -15 -153 -91 -176 -118 -10 -13 -2 -28 53 -94 l66
-78 97 -16 c54 -9 101 -14 105 -10 14 12 29 156 22 209 -3 29 -16 67 -28 85
-18 26 -29 32 -61 34 -22 1 -57 -4 -78 -12z"/>
<path d="M1251 1670 l-42 -50 86 0 87 0 -42 50 c-23 28 -43 50 -44 50 -2 0
-22 -22 -45 -50z"/>
<path d="M1178 1543 c-21 -3 -37 -20 -72 -76 -24 -40 -55 -94 -67 -120 l-24
-48 33 -62 c66 -128 100 -174 133 -181 40 -8 173 -8 222 1 41 6 59 28 141 176
l37 67 -32 58 c-17 31 -49 85 -71 118 -33 53 -44 62 -76 68 -40 6 -179 6 -224
-1z m182 -118 c89 -46 104 -166 29 -229 -87 -73 -222 -21 -235 91 -13 105 110
188 206 138z"/>
<path d="M977 1520 c-20 -4 -40 -9 -42 -12 -3 -3 4 -32 16 -64 16 -43 24 -55
31 -44 5 8 24 41 43 73 38 64 37 64 -48 47z"/>
<path d="M1540 1524 c1 -5 18 -38 40 -73 25 -41 41 -60 44 -50 33 90 36 103
24 111 -7 4 -20 8 -29 8 -9 0 -31 3 -48 6 -17 4 -31 3 -31 -2z"/>
<path d="M769 1461 c-91 -38 -157 -86 -177 -127 -15 -33 -15 -37 3 -70 10 -19
39 -50 64 -68 43 -32 161 -86 186 -86 6 0 28 43 48 95 l38 95 -38 95 c-20 52
-42 95 -48 95 -5 0 -40 -13 -76 -29z"/>
<path d="M1698 1394 l-36 -95 37 -90 c21 -49 40 -91 43 -95 9 -8 128 43 183
80 28 18 59 49 70 69 18 34 18 38 3 71 -9 19 -38 49 -64 67 -45 31 -168 88
-189 89 -5 0 -26 -43 -47 -96z"/>
<path d="M952 1150 c-12 -35 -21 -65 -19 -66 1 -1 30 -6 65 -10 l62 -7 -35 59
c-19 33 -38 66 -43 74 -6 10 -15 -3 -30 -50z"/>
<path d="M1577 1143 c-21 -35 -37 -67 -34 -70 7 -6 90 7 107 17 10 6 9 18 -5
59 -9 28 -20 53 -23 55 -4 2 -24 -25 -45 -61z"/>
<path d="M1610 1005 c-36 -7 -79 -13 -96 -14 -26 -1 -41 -13 -97 -86 l-67 -85
58 -45 c72 -57 131 -86 188 -93 58 -6 88 20 105 90 15 66 1 251 -20 247 -3 -1
-35 -7 -71 -14z"/>
<path d="M895 957 c-4 -31 -6 -94 -4 -140 4 -75 7 -89 29 -112 22 -24 30 -27
76 -22 28 3 69 14 90 25 50 26 154 103 154 114 0 5 -27 41 -60 80 -33 40 -60
75 -60 78 0 4 -28 10 -62 13 -35 4 -84 9 -110 13 l-46 6 -7 -55z"/>
<path d="M1251 930 c23 -27 44 -50 46 -50 5 0 50 53 71 82 12 17 9 18 -73 18
l-86 0 42 -50z"/>
</g>
</svg>
