<?xml version="1.0" standalone="no"?>
<!DOCTYPE svg PUBLIC "-//W3C//DTD SVG 20010904//EN"
 "http://www.w3.org/TR/2001/REC-SVG-20010904/DTD/svg10.dtd">
<svg version="1.0" xmlns="http://www.w3.org/2000/svg"
 width="260.000000pt" height="260.000000pt" viewBox="0 0 260.000000 260.000000"
 preserveAspectRatio="xMidYMid meet">
<metadata>
Created by potrace 1.11, written by Peter Selinger 2001-2013
</metadata>
<g transform="translate(0.000000,260.000000) scale(0.100000,-0.100000)"
fill="#000000" stroke="none">
<path d="M871 2093 c-96 -49 -134 -204 -97 -396 12 -62 12 -69 -3 -74 -223
-77 -341 -176 -341 -286 0 -64 21 -106 79 -160 48 -45 160 -105 239 -128 31
-9 41 -16 38 -28 -17 -56 -28 -166 -23 -237 11 -188 120 -272 281 -215 64 22
151 77 211 132 l45 42 45 -42 c60 -55 147 -110 211 -132 161 -57 270 27 281
215 5 71 -6 181 -23 237 -3 12 7 19 38 28 79 23 191 83 239 128 58 54 79 96
79 160 0 110 -118 209 -341 286 -15 5 -15 12 -2 79 9 45 13 108 10 164 -5 108
-30 170 -85 212 -31 24 -45 27 -107 27 -63 0 -81 -4 -147 -38 -42 -21 -101
-61 -131 -88 -30 -27 -60 -49 -65 -49 -6 0 -37 22 -69 50 -127 108 -278 156
-362 113z m195 -98 c38 -19 93 -56 123 -83 l55 -48 -57 -67 c-30 -36 -63 -77
-71 -90 -14 -20 -30 -25 -108 -37 -150 -21 -141 -23 -155 40 -14 70 -16 184
-3 231 26 95 100 113 216 54z m648 9 c14 -15 31 -45 37 -68 12 -43 6 -196 -9
-251 -10 -35 -10 -35 -150 -15 -78 12 -94 17 -108 37 -8 13 -41 54 -71 90
l-57 67 55 48 c72 64 179 118 234 118 32 0 48 -6 69 -26z m-364 -256 l42 -53
-46 -3 c-25 -2 -67 -2 -92 0 l-46 3 42 53 c23 28 45 52 50 52 5 0 27 -24 50
-52z m157 -220 c28 -46 64 -109 79 -140 l28 -58 -23 -47 c-49 -102 -123 -214
-148 -224 -32 -12 -254 -12 -286 0 -25 10 -99 122 -148 224 l-23 47 28 58 c15
31 51 94 79 140 l52 82 155 0 155 0 52 -82z m-477 58 c0 -2 -20 -39 -45 -82
l-44 -78 -12 30 c-25 65 -39 107 -36 110 11 12 137 30 137 20z m630 -7 c27 -6
50 -12 50 -14 0 -3 -24 -69 -39 -109 l-12 -29 -44 78 c-25 43 -45 80 -45 82 0
6 40 3 90 -8z m-806 -146 l38 -102 -40 -103 c-39 -100 -41 -103 -71 -102 -16
1 -68 20 -114 42 -200 97 -210 214 -27 311 71 38 163 71 171 62 3 -3 22 -52
43 -108z m1106 46 c183 -97 173 -214 -27 -311 -46 -22 -98 -41 -114 -42 -30
-1 -32 2 -71 102 l-40 104 31 81 c17 45 35 94 40 109 l10 27 56 -19 c30 -10
82 -33 115 -51z m-933 -405 c-4 -5 -137 15 -137 20 0 7 40 118 46 127 3 6 26
-24 51 -66 24 -42 42 -79 40 -81z m659 93 c9 -28 19 -57 21 -63 4 -11 -124
-40 -134 -30 -7 6 81 154 89 150 3 -2 14 -28 24 -57z m-695 -173 l106 -16 73
-91 73 -91 -39 -34 c-92 -81 -191 -132 -253 -132 -67 0 -111 75 -111 190 0 73
21 190 34 190 6 0 59 -7 117 -16z m758 -53 c31 -188 -9 -311 -100 -311 -62 0
-161 51 -253 132 l-39 34 72 89 72 90 92 16 c152 27 142 30 156 -50z m-369 12
c-5 -10 -26 -36 -45 -58 l-35 -40 -35 40 c-67 76 -68 75 35 75 84 0 90 -1 80
-17z"/>
<path d="M1235 1476 c-122 -56 -125 -223 -5 -283 24 -13 56 -23 70 -23 14 0
46 10 70 23 143 72 102 281 -57 294 -28 2 -61 -2 -78 -11z"/>
</g>
</svg>
